<svg width="245" height="40" xmlns="http://www.w3.org/2000/svg"><path d="M239.45 17.68c.08-.366.123-.734.123-1.019 0-1.347-.654-1.998-1.962-1.998-1.142 0-1.915.772-1.915 1.957 0 1.63 1.468 2.445 4.038 4.118 2.286 1.512 3.797 2.448 3.797 5.466 0 4.25-2.86 6.532-8.365 6.532-4.898 0-7.386-1.838-7.386-5.385 0-.448.04-.98.122-1.632h5.628a8.41 8.41 0 0 0-.124 1.265c0 1.547.655 2.24 2.123 2.24 1.27 0 2.205-.937 2.205-2.444 0-1.837-1.588-2.488-4.204-4.447-2.115-1.595-3.466-2.778-3.466-5.107 0-3.629 2.734-5.955 7.797-5.955 4.69 0 7.139 1.719 7.139 4.859 0 .49-.043 1.02-.162 1.55h-5.389Zm-11.3-.897c-.575-.086-1.105-.16-1.55-.16-2.9 0-4.123 1.667-4.856 5.218l-2.2 10.407h-5.796l3.383-15.95c.327-1.557.571-3.062.732-4.535h5.597l-.49 2.978c1.34-2.12 3.019-3.103 5.38-3.103.287 0 .573 0 .86.045l-1.06 5.1Zm-21.997 5.14c-.531 2.614-.97 4.282-1.217 4.977-.573 1.554-1.348 2.324-2.657 2.324-1.347 0-2.04-.855-2.04-2.488 0-1.103.532-3.303 1.266-6.726.328-1.638.618-2.623.732-2.938.536-1.519 1.27-2.247 2.577-2.247 1.34 0 1.995.816 1.995 2.404 0 .94-.204 2.532-.656 4.695Zm-1.217-10.65c-3.593 0-5.838 1.058-7.509 3.714-.653 1.018-1.427 3.02-2.038 5.8-.45 2.076-.695 3.828-.695 5.136 0 4.41 2.607 6.771 7.585 6.771 3.597 0 5.835-1.105 7.471-3.712.732-1.22 1.467-3.183 2.078-5.876.451-2.039.654-3.674.654-4.973 0-4.452-2.612-6.86-7.546-6.86Zm-19.055 10.65c-.524 2.614-.978 4.282-1.223 4.977-.576 1.554-1.35 2.324-2.65 2.324-1.352 0-2.043-.855-2.043-2.488 0-1.103.53-3.303 1.263-6.726.327-1.638.613-2.623.738-2.938.529-1.519 1.263-2.247 2.571-2.247 1.344 0 1.993.816 1.993 2.404 0 .94-.204 2.532-.649 4.695Zm-1.223-10.65c-3.593 0-5.836 1.058-7.512 3.714-.654 1.018-1.43 3.02-2.038 5.8-.445 2.076-.695 3.828-.695 5.136 0 4.41 2.616 6.771 7.594 6.771 3.587 0 5.833-1.105 7.464-3.712.734-1.22 1.47-3.183 2.08-5.876.447-2.039.652-3.674.652-4.973 0-4.452-2.608-6.86-7.545-6.86Zm-18.97 6.329c-.693 3.385-1.473 5.708-2.038 6.893-1.23 2.528-2.617 3.266-5.839 3.266-.405 0-.895 0-1.387-.044l4.365-20.487c.412-.038.817-.038 1.182-.038 3.266 0 4.406 1.306 4.406 4.733 0 1.468-.203 3.391-.69 5.677ZM163.44 2.866h-7.957l-6.241 29.383h8.487c2.45 0 4.73 0 6.93-.859 1.921-.737 3.31-2.12 4.493-4.286.976-1.752 1.962-5.304 2.98-10.645.322-1.796.485-3.472.485-5.105 0-6.324-2.65-8.488-9.177-8.488Zm-19.5 13.793v15.59h-5.753V18.25c0-2.281-.324-3.467-1.917-3.467-1.467 0-2.448 1.103-2.448 2.897v14.569h-5.752V15.436c0-1.103 0-2.328-.207-3.672h5.792l.167 2.12c.93-1.708 2.53-2.613 4.567-2.613 3.588 0 5.55 1.878 5.55 5.388Zm-25.213 2.734h-5.146v-.691c0-2.733.906-4.078 2.616-4.078 1.59 0 2.53 1.096 2.53 3.055v1.714Zm-2.53-8.118c-6.242 0-8.49 3.139-8.49 10.281 0 7.958 1.717 11.14 8.49 11.14 5.59 0 8.322-2.692 8.322-8.04h-5.713v.368c0 2.737-.942 4.121-2.65 4.121-1.836 0-2.575-1.384-2.575-4.406v-2.123h10.938V19.52c0-5.552-2.691-8.245-8.322-8.245ZM98.82 22.207c0 4.529-.207 6.858-2.372 6.858-1.632 0-2.407-1.55-2.407-4.697v-4.443c0-3.593.368-5.228 2.448-5.228 2.291 0 2.331 2.206 2.331 7.023v.487Zm-.252-10.934c-2.079 0-3.71.902-4.527 2.45l-.197-1.958h-5.636c.127 1.676.202 3.145.202 4.532V40h5.676v-9.465c1.179 1.511 2.692 2.2 4.609 2.2 4.526 0 5.833-3.385 5.833-10.4 0-4.616-.164-7.638-1.918-9.471-.895-.939-2.363-1.591-4.042-1.591ZM74.134 28.126c-3.305 0-3.754-3.385-3.754-10.651 0-7.265.49-10.402 3.835-10.402 3.263 0 3.754 3.097 3.754 10.114 0 7.51-.323 10.939-3.835 10.939ZM74.17 2.5c-3.712 0-6.48 1.224-7.906 3.386-1.68 2.493-2.046 6.164-2.046 11.344 0 6.775.613 11.056 3.389 13.463 1.306 1.145 3.71 2.001 6.608 2.001 3.593 0 6.406-1.305 7.834-3.427 1.876-2.814 2.078-6.774 2.078-12.405 0-6.042-.567-9.956-3.224-12.28C79.483 3.32 77.114 2.5 74.17 2.5ZM44.773 25.32 39.15 21.8l1.674-1.74 5.974 3.627-2.025 1.634Zm-12.306-1.016s-5.72 2.5-10.434 1.887c0 0-8.312-1.127-11.756-5.46l2.082-1.13s5.214 3.733 9.878 3.885c0 0 5.62.458 9.521-1.534 0 0 6.34-2.601 11.453-9.803l1.769 1.33s-6.988 9.294-12.513 10.825ZM21.828 12.252c2.556-.257 5.708.75 7.586 1.447l-1.513 1.727c-1.947-.637-3.591-.772-3.591-.772-6.531-.406-11.852 3.368-11.852 3.368l-1.62-1.376c4.607-3.986 10.99-4.394 10.99-4.394Zm11.256-2.116.965 1.936c-1.668 2.863-5.927 6.95-5.927 6.95l-2.129.152.102-.201c2.935-2.45 6.99-8.837 6.99-8.837Zm2.28 4.643-3.187 3.573-1.118-.559 2.99-3.776 1.315.762Zm1.167.865 1.72.148-4 3.885-1.118-.66 3.398-3.373Zm15.186-2.118-.365-1.008c-.605-3.01-2.75-5.927-2.75-5.927l-2.91-.26c-1.748-.17-3.698-.691-4.816-1.534.271.177-2.779-2.242-2.779-2.242-.261-.26-2.13-1.334-2.13-1.334A3.858 3.858 0 0 0 34.091 0c.354.12-2.922.735-2.922.735-1.208-.253-2.957-.38-2.957-.38-2.484.56-6.435 3.061-6.435 3.061-1.671.77-3.244 2.558-3.244 2.558l-1.798.617-1.764 1.952c-2.272.359-5.244 1.718-5.244 1.718-1.525.717-4.439 2.895-4.439 2.895l-.527 2.839-1.73 1.72-2.884 4.748C-.361 23.487.6 26.037.6 26.037c.457 1.84 1.776 3.324 1.776 3.324l1.47 1.018 2.988 2.806c1.32 1.433.924 1.245.924 1.245l.51.202 4.863.217c.606.666.402 1.169.402 1.169l3.43 1.411 5.372 1.07 1.968 1.455c2.033.24 5.074-.535 5.074-.535l3.852-1.228 2.834-1.376c2.431-.56 4.663-1.585 4.663-1.585.607-.455 4.457-1.278 4.457-1.278s.76-.153 1.976-.508c.082-.024.164-.054.247-.082 1.042-.379 1.529-1.04 1.529-1.04l1.315-2.709 2.176-3.473.308-.25.948-.604c.152-3.624-.9-9.924-.9-9.924-.204-.808-1.066-1.836-1.066-1.836Z" fill="#F4F4F5" fill-rule="evenodd"/></svg>