<?xml version="1.0" encoding="UTF-8"?>
<svg width="245px" height="40px" viewBox="0 0 245 40" version="1.1" xmlns="http://www.w3.org/2000/svg" xmlns:xlink="http://www.w3.org/1999/xlink">
    <!-- Generator: sketchtool 58 (101010) - https://sketch.com -->
    <title>B860CA94-531E-4ED1-8225-02132B71F288</title>
    <desc>Created with sketchtool.</desc>
    <g id="Design" stroke="none" stroke-width="1" fill="none" fill-rule="evenodd">
        <g id="Desktop---Home" transform="translate(-1045.000000, -3780.000000)" fill="#F4F4F5">
            <g id="footer-footer-/-D" transform="translate(0.000000, 3720.000000)">
                <g id="footer">
                    <path d="M1284.44948,77.6797463 C1284.52999,77.3138604 1284.57261,76.9456064 1284.57261,76.6614232 C1284.57261,75.3139213 1283.91905,74.6626682 1282.61075,74.6626682 C1281.46938,74.6626682 1280.69624,75.4346991 1280.69624,76.6199798 C1280.69624,78.2504808 1282.16438,79.0651393 1284.73363,80.7382678 C1287.01991,82.2503592 1288.53067,83.1857955 1288.53067,86.2040577 C1288.53067,90.4537804 1285.67017,92.7355345 1280.16582,92.7355345 C1275.26767,92.7355345 1272.78012,90.8978166 1272.78012,87.3514473 C1272.78012,86.9026747 1272.81919,86.3710153 1272.90207,85.7185781 L1278.52955,85.7185781 C1278.45377,86.2040577 1278.40641,86.6184915 1278.40641,86.9843773 C1278.40641,88.5308075 1279.06116,89.223504 1280.5293,89.223504 C1281.79972,89.223504 1282.73388,88.2868836 1282.73388,86.7795286 C1282.73388,84.9429948 1281.14616,84.2917417 1278.52955,82.3332459 C1276.41495,80.7382678 1275.06402,79.5553553 1275.06402,77.2262373 C1275.06402,73.5969812 1277.79785,71.2714155 1282.86057,71.2714155 C1287.55152,71.2714155 1290,72.9895397 1290,76.1297638 C1290,76.6199798 1289.95738,77.1504551 1289.83779,77.6797463 L1284.44948,77.6797463 Z M1273.14952,76.7833852 C1272.57529,76.6969461 1272.04486,76.622348 1271.59968,76.622348 C1268.7001,76.622348 1267.47704,78.289556 1266.74416,81.8406617 L1264.54313,92.2476867 L1258.74752,92.2476867 L1262.13135,76.2979056 C1262.45813,74.7408185 1262.70203,73.2358318 1262.86305,71.7628156 L1268.45975,71.7628156 L1267.96958,74.7408185 C1269.30985,72.6201015 1270.98875,71.6384855 1273.3508,71.6384855 C1273.63732,71.6384855 1273.92266,71.6384855 1274.21037,71.6834811 L1273.14952,76.7833852 Z M1251.15344,81.9235485 C1250.62183,84.5368497 1250.18257,86.2052418 1249.9363,86.9003065 C1249.36325,88.4538412 1248.58774,89.223504 1247.27944,89.223504 C1245.93206,89.223504 1245.23825,88.3685863 1245.23825,86.7357171 C1245.23825,85.6333231 1245.77104,83.4332717 1246.50511,80.0100484 C1246.83307,78.3724428 1247.12315,77.3872744 1247.23681,77.0723047 C1247.77316,75.5531088 1248.50723,74.8248894 1249.81435,74.8248894 C1251.15344,74.8248894 1251.80936,75.6407319 1251.80936,77.2286055 C1251.80936,78.1687782 1251.60453,79.7613881 1251.15344,81.9235485 L1251.15344,81.9235485 Z M1249.9363,71.2725996 C1246.3429,71.2725996 1244.09807,72.331182 1242.42746,74.9871106 C1241.7739,76.0054337 1240.99958,78.006557 1240.38864,80.7868158 C1239.93873,82.8625371 1239.69364,84.6150001 1239.69364,85.9234268 C1239.69364,90.3330025 1242.30078,92.6940911 1247.27944,92.6940911 C1250.87638,92.6940911 1253.11412,91.589329 1254.75038,88.9819483 C1255.48209,87.7611447 1256.21734,85.7990967 1256.82828,83.106461 C1257.27938,81.0674467 1257.48184,79.4322093 1257.48184,78.1332553 C1257.48184,73.6810521 1254.86997,71.2725996 1249.9363,71.2725996 L1249.9363,71.2725996 Z M1230.88124,81.9235485 C1230.35673,84.5368497 1229.90327,86.2052418 1229.65818,86.9003065 C1229.08158,88.4538412 1228.30725,89.223504 1227.00724,89.223504 C1225.65631,89.223504 1224.96486,88.3685863 1224.96486,86.7357171 C1224.96486,85.6333231 1225.4941,83.4332717 1226.22817,80.0100484 C1226.55495,78.3724428 1226.84148,77.3872744 1226.9658,77.0723047 C1227.49504,75.5531088 1228.22911,74.8248894 1229.53741,74.8248894 C1230.88124,74.8248894 1231.53006,75.6407319 1231.53006,77.2286055 C1231.53006,78.1687782 1231.32642,79.7613881 1230.88124,81.9235485 L1230.88124,81.9235485 Z M1229.65818,71.2725996 C1226.06478,71.2725996 1223.82232,72.331182 1222.14579,74.9871106 C1221.49223,76.0054337 1220.71554,78.006557 1220.10815,80.7868158 C1219.66297,82.8625371 1219.41315,84.6150001 1219.41315,85.9234268 C1219.41315,90.3330025 1222.02858,92.6940911 1227.00724,92.6940911 C1230.59353,92.6940911 1232.83955,91.589329 1234.47108,88.9819483 C1235.20515,87.7611447 1235.94041,85.7990967 1236.55016,83.106461 C1236.99771,81.0674467 1237.20254,79.4322093 1237.20254,78.1332553 C1237.20254,73.6810521 1234.5954,71.2725996 1229.65818,71.2725996 L1229.65818,71.2725996 Z M1210.68718,77.6015959 C1209.99455,80.9869281 1209.21549,83.3101256 1208.64954,84.4954063 C1207.41938,87.0234525 1206.03293,87.7611447 1202.81131,87.7611447 C1202.40639,87.7611447 1201.91622,87.7611447 1201.42368,87.7173331 L1205.78903,67.2300938 C1206.20106,67.1922027 1206.60598,67.1922027 1206.97065,67.1922027 C1210.23727,67.1922027 1211.37744,68.4982613 1211.37744,71.9250368 C1211.37744,73.3933166 1211.1738,75.3162895 1210.68718,77.6015959 L1210.68718,77.6015959 Z M1208.44116,62.8655138 L1200.48359,62.8655138 L1194.24281,92.2488708 L1202.72961,92.2488708 C1205.18046,92.2488708 1207.46082,92.2488708 1209.66067,91.3904008 C1211.58109,90.6527086 1212.9699,89.2696838 1214.15271,87.1039711 C1215.12949,85.3515081 1216.11457,81.8004024 1217.1328,76.4589427 C1217.45484,74.6626682 1217.61823,72.9871715 1217.61823,71.3543023 C1217.61823,65.0300423 1214.96847,62.8655138 1208.44116,62.8655138 L1208.44116,62.8655138 Z M1188.94092,76.659055 L1188.94092,92.2488708 L1183.18793,92.2488708 L1183.18793,78.2504808 C1183.18793,75.9687267 1182.86352,74.783446 1181.27106,74.783446 C1179.8041,74.783446 1178.82258,75.8858399 1178.82258,77.6797463 L1178.82258,92.2488708 L1173.07078,92.2488708 L1173.07078,75.4358832 C1173.07078,74.3334893 1173.07078,73.1079493 1172.86358,71.7639997 L1178.65564,71.7639997 L1178.82258,73.8835326 C1179.75319,72.1760653 1181.35276,71.2714155 1183.3904,71.2714155 C1186.97787,71.2714155 1188.94092,73.1493927 1188.94092,76.659055 L1188.94092,76.659055 Z M1163.72795,79.3931341 L1158.58235,79.3931341 L1158.58235,78.7016217 C1158.58235,75.9687267 1159.4881,74.623593 1161.19777,74.623593 C1162.78786,74.623593 1163.72795,75.7200664 1163.72795,77.6785622 L1163.72795,79.3931341 Z M1161.19777,71.2749678 C1154.9558,71.2749678 1152.7086,74.4140079 1152.7086,81.5564785 C1152.7086,89.5136077 1154.42538,92.6952752 1161.19777,92.6952752 C1166.78737,92.6952752 1169.52001,90.0038237 1169.52001,84.6552593 L1163.80728,84.6552593 L1163.80728,85.0235134 C1163.80728,87.7611447 1162.86482,89.1453536 1161.15752,89.1453536 C1159.32116,89.1453536 1158.58235,87.7611447 1158.58235,84.7393302 L1158.58235,82.616245 L1169.52001,82.616245 L1169.52001,79.5198324 C1169.52001,73.9676035 1166.82881,71.2749678 1161.19777,71.2749678 L1161.19777,71.2749678 Z M1143.82042,82.2065476 C1143.82042,86.7357171 1143.61322,89.0648351 1141.44771,89.0648351 C1139.81618,89.0648351 1139.04067,87.5148526 1139.04067,84.3675239 L1139.04067,79.9247934 C1139.04067,76.3322444 1139.40889,74.697007 1141.48915,74.697007 C1143.78016,74.697007 1143.82042,76.9029789 1143.82042,81.7198839 L1143.82042,82.2065476 Z M1143.56823,71.2725996 C1141.48915,71.2725996 1139.8588,72.1748812 1139.04067,73.7236796 L1138.84413,71.7651838 L1133.20836,71.7651838 C1133.33504,73.4406805 1133.40963,74.9101443 1133.40963,76.2967215 L1133.40963,99.9999671 L1139.08566,99.9999671 L1139.08566,90.535483 C1140.26491,92.0463903 1141.77804,92.7355345 1143.69491,92.7355345 C1148.22129,92.7355345 1149.52841,89.3502023 1149.52841,82.33443 C1149.52841,77.7188215 1149.36384,74.697007 1147.61035,72.8640254 C1146.71526,71.9250368 1145.24712,71.2725996 1143.56823,71.2725996 L1143.56823,71.2725996 Z M1119.13432,88.1258465 C1115.82863,88.1258465 1115.3799,84.7405143 1115.3799,77.4748976 C1115.3799,70.210465 1115.87007,67.072609 1119.21483,67.072609 C1122.47789,67.072609 1122.96925,70.1702057 1122.96925,77.1871621 C1122.96925,84.6978868 1122.64602,88.1258465 1119.13432,88.1258465 L1119.13432,88.1258465 Z M1119.16984,62.500812 C1115.45805,62.500812 1112.68989,63.7251679 1111.26437,65.8873283 C1109.58429,68.3798516 1109.21844,72.0505511 1109.21844,77.2309737 C1109.21844,84.0063744 1109.83056,88.2868836 1112.60701,90.694152 C1113.91294,91.8391734 1116.31643,92.6952752 1119.21483,92.6952752 C1122.80823,92.6952752 1125.62138,91.3904008 1127.04926,89.2684997 C1128.9247,86.4539021 1129.12716,82.4942831 1129.12716,76.8627196 C1129.12716,70.8214588 1128.56003,66.9068355 1125.90316,64.5824538 C1124.48238,63.3202069 1122.11441,62.500812 1119.16984,62.500812 L1119.16984,62.500812 Z M1089.77266,85.3219057 L1084.14992,81.8004024 L1085.82407,80.0609645 L1091.79846,83.6878524 L1089.77266,85.3219057 Z M1077.4675,84.3047667 C1077.4675,84.3047667 1071.74649,86.8043947 1067.03304,86.1922167 C1067.03304,86.1922167 1058.72146,85.0649568 1055.27725,80.7311632 L1057.35869,79.6027192 C1057.35869,79.6027192 1062.57297,83.3349916 1067.23668,83.486556 C1067.23668,83.486556 1072.85706,83.9448014 1076.7583,81.9531509 C1076.7583,81.9531509 1083.09735,79.3516907 1088.21099,72.1500152 L1089.97986,73.4797557 C1089.97986,73.4797557 1082.99198,82.7737299 1077.4675,84.3047667 L1077.4675,84.3047667 Z M1066.82821,72.2518475 C1069.38443,71.9948985 1072.5362,73.0025647 1074.414,73.6988135 L1072.90087,75.4264105 C1070.9544,74.7893665 1069.30984,74.6543795 1069.30984,74.6543795 C1062.77898,74.2482344 1057.45815,78.0219502 1057.45815,78.0219502 L1055.83727,76.64603 C1060.44534,72.6603608 1066.82821,72.2518475 1066.82821,72.2518475 L1066.82821,72.2518475 Z M1078.08436,70.1358669 L1079.04931,72.0718648 C1077.38107,74.9350104 1073.12228,79.0225118 1073.12228,79.0225118 L1070.99347,79.1740762 L1071.09529,78.9727798 C1074.03039,76.5228839 1078.08436,70.1358669 1078.08436,70.1358669 L1078.08436,70.1358669 Z M1080.36353,74.7787096 L1077.17743,78.3523132 L1076.05856,77.7934196 L1079.04931,74.0173355 L1080.36353,74.7787096 Z M1081.53094,75.6442842 L1083.25127,75.7922963 L1079.25059,79.6773172 L1078.1329,79.0165913 L1081.53094,75.6442842 Z M1096.71674,73.5259354 L1096.35207,72.5182692 C1095.74705,69.5071116 1093.60286,66.5906817 1093.60286,66.5906817 L1090.69144,66.3301804 C1088.94387,66.1608546 1086.99385,65.6398521 1085.87617,64.7967753 C1086.1473,64.9743898 1083.09735,62.5552805 1083.09735,62.5552805 C1082.83569,62.2947792 1080.96618,61.2208036 1080.96618,61.2208036 C1080.15397,60.2498444 1079.09193,60 1079.09193,60 C1079.44594,60.1195938 1076.16986,60.735324 1076.16986,60.735324 C1074.96219,60.4819273 1073.21344,60.355229 1073.21344,60.355229 C1070.72944,60.9153067 1066.77848,63.4161187 1066.77848,63.4161187 C1065.10669,64.1857815 1063.53436,65.9737673 1063.53436,65.9737673 L1061.73589,66.5906817 L1059.97175,68.5432569 C1057.69968,68.9020382 1054.72788,70.2613811 1054.72788,70.2613811 C1053.2029,70.9777596 1050.28912,73.1564973 1050.28912,73.1564973 L1049.76224,75.9947768 L1048.03126,77.7152692 L1045.14825,82.4634965 C1044.64032,83.486556 1045.60053,86.0371001 1045.60053,86.0371001 C1046.05755,87.8771862 1047.37651,89.3608592 1047.37651,89.3608592 L1048.84702,90.3791823 L1051.8354,93.1854912 C1053.15555,94.6182481 1052.75891,94.4299768 1052.75891,94.4299768 L1053.26921,94.6324573 L1058.13184,94.8491469 C1058.73804,95.5146092 1058.53439,96.0178503 1058.53439,96.0178503 L1061.96321,97.4292934 L1067.33614,98.4997168 L1069.30392,99.9537874 C1071.33683,100.194159 1074.37848,99.4185757 1074.37848,99.4185757 L1078.22999,98.1906675 L1081.06445,96.8147473 C1083.49517,96.2546696 1085.72699,95.2304261 1085.72699,95.2304261 C1086.33437,94.7745489 1090.18351,93.9516017 1090.18351,93.9516017 C1090.18351,93.9516017 1090.94363,93.7988533 1092.15958,93.4436243 C1092.24246,93.4199424 1092.32415,93.3903399 1092.40703,93.3619216 C1093.44894,92.9830107 1093.93556,92.3211007 1093.93556,92.3211007 L1095.25096,89.6130718 L1097.42713,86.1401165 L1097.73497,85.8902721 L1098.68334,85.2863828 C1098.83489,81.6618631 1097.78351,75.3624692 1097.78351,75.3624692 C1097.57868,74.5537313 1096.71674,73.5259354 1096.71674,73.5259354 L1096.71674,73.5259354 Z" id="logo"></path>
                </g>
            </g>
        </g>
    </g>
</svg>