<?xml version="1.0" encoding="UTF-8"?>
<svg width="245px" height="40px" viewBox="0 0 245 40" version="1.1" xmlns="http://www.w3.org/2000/svg" xmlns:xlink="http://www.w3.org/1999/xlink">
    <!-- Generator: sketchtool 58 (101010) - https://sketch.com -->
    <title>1EB1DB93-9CB5-4392-8DF6-C8926B6E8C0B</title>
    <desc>Created with sketchtool.</desc>
    <g id="Design" stroke="none" stroke-width="1" fill="none" fill-rule="evenodd">
        <g id="Desktop---Home" transform="translate(-30.000000, -70.000000)" fill="#6B3267">
            <g id="header-header-/-D" transform="translate(0.000000, 40.000000)">
                <g id="header">
                    <path d="M269.449476,47.6797463 C269.529987,47.3138604 269.572611,46.9456064 269.572611,46.6614232 C269.572611,45.3139213 268.919051,44.6626682 267.610747,44.6626682 C266.469385,44.6626682 265.696242,45.4346991 265.696242,46.6199798 C265.696242,48.2504808 267.164384,49.0651393 269.733633,50.7382678 C272.019909,52.2503592 273.530674,53.1857955 273.530674,56.2040577 C273.530674,60.4537804 270.670165,62.7355345 265.165817,62.7355345 C260.267669,62.7355345 257.780115,60.8978166 257.780115,57.3514473 C257.780115,56.9026747 257.819187,56.3710153 257.902066,55.7185781 L263.529549,55.7185781 C263.453774,56.2040577 263.406414,56.6184915 263.406414,56.9843773 C263.406414,58.5308075 264.061158,59.223504 265.5293,59.223504 C266.799717,59.223504 267.733881,58.2868836 267.733881,56.7795286 C267.733881,54.9429948 266.146157,54.2917417 263.529549,52.3332459 C261.414951,50.7382678 260.064023,49.5553553 260.064023,47.2262373 C260.064023,43.5969812 262.797846,41.2714155 267.860568,41.2714155 C272.551518,41.2714155 275,42.9895397 275,46.1297638 C275,46.6199798 274.957377,47.1504551 274.837794,47.6797463 L269.449476,47.6797463 Z M258.149519,46.7833852 C257.575286,46.6969461 257.04486,46.622348 256.599682,46.622348 C253.700101,46.622348 252.477044,48.289556 251.744157,51.8406617 L249.543128,62.2476867 L243.747519,62.2476867 L247.13135,46.2979056 C247.45813,44.7408185 247.702031,43.2358318 247.863053,41.7628156 L253.459752,41.7628156 L252.969582,44.7408185 C254.309854,42.6201015 255.988745,41.6384855 258.350796,41.6384855 C258.637321,41.6384855 258.922661,41.6384855 259.21037,41.6834811 L258.149519,46.7833852 Z M236.153437,51.9235485 C235.621827,54.5368497 235.182568,56.2052418 234.936299,56.9003065 C234.36325,58.4538412 233.58774,59.223504 232.279436,59.223504 C230.932061,59.223504 230.238245,58.3685863 230.238245,56.7357171 C230.238245,55.6333231 230.771039,53.4332717 231.50511,50.0100484 C231.833074,48.3724428 232.12315,47.3872744 232.236813,47.0723047 C232.773158,45.5531088 233.507229,44.8248894 234.814349,44.8248894 C236.153437,44.8248894 236.809364,45.6407319 236.809364,47.2286055 C236.809364,48.1687782 236.604535,49.7613881 236.153437,51.9235485 L236.153437,51.9235485 Z M234.936299,41.2725996 C231.342904,41.2725996 229.098067,42.331182 227.427464,44.9871106 C226.773904,46.0054337 225.999577,48.006557 225.388641,50.7868158 C224.938726,52.8625371 224.693641,54.6150001 224.693641,55.9234268 C224.693641,60.3330025 227.300777,62.6940911 232.279436,62.6940911 C235.876384,62.6940911 238.114116,61.589329 239.750384,58.9819483 C240.482087,57.7611447 241.217342,55.7990967 241.828279,53.106461 C242.279377,51.0674467 242.481839,49.4322093 242.481839,48.1332553 C242.481839,43.6810521 239.869967,41.2725996 234.936299,41.2725996 L234.936299,41.2725996 Z M215.881237,51.9235485 C215.356732,54.5368497 214.903265,56.2052418 214.65818,56.9003065 C214.081579,58.4538412 213.307253,59.223504 212.007237,59.223504 C210.656309,59.223504 209.964862,58.3685863 209.964862,56.7357171 C209.964862,55.6333231 210.494103,53.4332717 211.228174,50.0100484 C211.554954,48.3724428 211.841479,47.3872744 211.965797,47.0723047 C212.495039,45.5531088 213.22911,44.8248894 214.537414,44.8248894 C215.881237,44.8248894 216.530061,45.6407319 216.530061,47.2286055 C216.530061,48.1687782 216.326416,49.7613881 215.881237,51.9235485 L215.881237,51.9235485 Z M214.65818,41.2725996 C211.064784,41.2725996 208.822316,42.331182 207.145792,44.9871106 C206.492232,46.0054337 205.715538,48.006557 205.108153,50.7868158 C204.662975,52.8625371 204.413154,54.6150001 204.413154,55.9234268 C204.413154,60.3330025 207.028578,62.6940911 212.007237,62.6940911 C215.593529,62.6940911 217.839549,61.589329 219.471081,58.9819483 C220.205152,57.7611447 220.940407,55.7990967 221.55016,53.106461 C221.997706,51.0674467 222.202536,49.4322093 222.202536,48.1332553 C222.202536,43.6810521 219.5954,41.2725996 214.65818,41.2725996 L214.65818,41.2725996 Z M195.687181,47.6015959 C194.994549,50.9869281 194.215487,53.3101256 193.649542,54.4954063 C192.419381,57.0234525 191.032934,57.7611447 187.81131,57.7611447 C187.406386,57.7611447 186.916217,57.7611447 186.423679,57.7173331 L190.789033,37.2300938 C191.20106,37.1922027 191.605983,37.1922027 191.970651,37.1922027 C195.237266,37.1922027 196.377444,38.4982613 196.377444,41.9250368 C196.377444,43.3933166 196.173799,45.3162895 195.687181,47.6015959 L195.687181,47.6015959 Z M193.44116,32.8655138 L185.483594,32.8655138 L179.242807,62.2488708 L187.729615,62.2488708 C190.180464,62.2488708 192.46082,62.2488708 194.660666,61.3904008 C196.58109,60.6527086 197.969905,59.2696838 199.152706,57.1039711 C200.129494,55.3515081 201.11457,51.8004024 202.132798,46.4589427 C202.454842,44.6626682 202.618232,42.9871715 202.618232,41.3543023 C202.618232,35.0300423 199.968472,32.8655138 193.44116,32.8655138 L193.44116,32.8655138 Z M173.94092,46.659055 L173.94092,62.2488708 L168.187934,62.2488708 L168.187934,48.2504808 C168.187934,45.9687267 167.863522,44.783446 166.271062,44.783446 C164.804104,44.783446 163.82258,45.8858399 163.82258,47.6797463 L163.82258,62.2488708 L158.070778,62.2488708 L158.070778,45.4358832 C158.070778,44.3334893 158.070778,43.1079493 157.863581,41.7639997 L163.655638,41.7639997 L163.82258,43.8835326 C164.753192,42.1760653 166.352757,41.2714155 168.390396,41.2714155 C171.977872,41.2714155 173.94092,43.1493927 173.94092,46.659055 L173.94092,46.659055 Z M148.727949,49.3931341 L143.582348,49.3931341 L143.582348,48.7016217 C143.582348,45.9687267 144.488097,44.623593 146.197772,44.623593 C147.787864,44.623593 148.727949,45.7200664 148.727949,47.6785622 L148.727949,49.3931341 Z M146.197772,41.2749678 C139.955801,41.2749678 137.708596,44.4140079 137.708596,51.5564785 C137.708596,59.5136077 139.425375,62.6952752 146.197772,62.6952752 C151.787367,62.6952752 154.520006,60.0038237 154.520006,54.6552593 L148.807276,54.6552593 L148.807276,55.0235134 C148.807276,57.7611447 147.864824,59.1453536 146.157516,59.1453536 C144.321155,59.1453536 143.582348,57.7611447 143.582348,54.7393302 L143.582348,52.616245 L154.520006,52.616245 L154.520006,49.5198324 C154.520006,43.9676035 151.828807,41.2749678 146.197772,41.2749678 L146.197772,41.2749678 Z M128.820417,52.2065476 C128.820417,56.7357171 128.61322,59.0648351 126.44771,59.0648351 C124.816178,59.0648351 124.040668,57.5148526 124.040668,54.3675239 L124.040668,49.9247934 C124.040668,46.3322444 124.408887,44.697007 126.48915,44.697007 C128.780162,44.697007 128.820417,46.9029789 128.820417,51.7198839 L128.820417,52.2065476 Z M128.568228,41.2725996 C126.48915,41.2725996 124.858802,42.1748812 124.040668,43.7236796 L123.844126,41.7651838 L118.208355,41.7651838 C118.335042,43.4406805 118.409633,44.9101443 118.409633,46.2967215 L118.409633,69.9999671 L124.085659,69.9999671 L124.085659,60.535483 C125.264909,62.0463903 126.778042,62.7355345 128.694915,62.7355345 C133.221291,62.7355345 134.528411,59.3502023 134.528411,52.33443 C134.528411,47.7188215 134.363837,44.697007 132.610355,42.8640254 C131.715262,41.9250368 130.24712,41.2725996 128.568228,41.2725996 L128.568228,41.2725996 Z M104.13432,58.1258465 C100.828633,58.1258465 100.379902,54.7405143 100.379902,47.4748976 C100.379902,40.210465 100.870072,37.072609 104.214831,37.072609 C107.477895,37.072609 107.969249,40.1702057 107.969249,47.1871621 C107.969249,54.6978868 107.646021,58.1258465 104.13432,58.1258465 L104.13432,58.1258465 Z M104.16984,32.500812 C100.458045,32.500812 97.689887,33.7251679 96.2643685,35.8873283 C94.5842931,38.3798516 94.2184416,42.0505511 94.2184416,47.2309737 C94.2184416,54.0063744 94.8305621,58.2868836 97.6070081,60.694152 C98.912944,61.8391734 101.316435,62.6952752 104.214831,62.6952752 C107.808227,62.6952752 110.621376,61.3904008 112.049263,59.2684997 C113.924696,56.4539021 114.127157,52.4942831 114.127157,46.8627196 C114.127157,40.8214588 113.560028,36.9068355 110.903165,34.5824538 C109.482382,33.3202069 107.114411,32.500812 104.16984,32.500812 L104.16984,32.500812 Z M74.7726642,55.3219057 L69.1499171,51.8004024 L70.8240726,50.0609645 L76.7984633,53.6878524 L74.7726642,55.3219057 Z M62.4675031,54.3047667 C62.4675031,54.3047667 56.7464853,56.8043947 52.0330391,56.1922167 C52.0330391,56.1922167 43.7214611,55.0649568 40.2772473,50.7311632 L42.3586938,49.6027192 C42.3586938,49.6027192 47.5729658,53.3349916 52.2366846,53.486556 C52.2366846,53.486556 57.8570637,53.9448014 61.7582958,51.9531509 C61.7582958,51.9531509 68.097354,49.3516907 73.2109873,42.1500152 L74.9798616,43.4797557 C74.9798616,43.4797557 67.9919793,52.7737299 62.4675031,54.3047667 L62.4675031,54.3047667 Z M51.8282096,42.2518475 C54.3844343,41.9948985 57.5362036,43.0025647 59.4140046,43.6988135 L57.9008711,45.4264105 C55.954399,44.7893665 54.3098432,44.6543795 54.3098432,44.6543795 C47.7789793,44.2482344 42.4581486,48.0219502 42.4581486,48.0219502 L40.8372724,46.64603 C45.4453439,42.6603608 51.8282096,42.2518475 51.8282096,42.2518475 L51.8282096,42.2518475 Z M63.0843595,40.1358669 L64.0493077,42.0718648 C62.3810722,44.9350104 58.1222764,49.0225118 58.1222764,49.0225118 L55.9934705,49.1740762 L56.0952933,48.9727798 C59.0303933,46.5228839 63.0843595,40.1358669 63.0843595,40.1358669 L63.0843595,40.1358669 Z M65.3635316,44.7787096 L62.1774267,48.3523132 L61.0585604,47.7934196 L64.0493077,44.0173355 L65.3635316,44.7787096 Z M66.5309413,45.6442842 L68.2512722,45.7922963 L64.2505852,49.6773172 L63.1329029,49.0165913 L66.5309413,45.6442842 Z M81.716739,43.5259354 L81.3520714,42.5182692 C80.7470549,39.5071116 78.6028572,36.5906817 78.6028572,36.5906817 L75.6914369,36.3301804 C73.9438743,36.1608546 71.9938502,35.6398521 70.876168,34.7967753 C71.1473006,34.9743898 68.097354,32.5552805 68.097354,32.5552805 C67.8356933,32.2947792 65.9661802,31.2208036 65.9661802,31.2208036 C65.1539661,30.2498444 64.0919312,30 64.0919312,30 C64.4459428,30.1195938 61.169855,30.735324 61.169855,30.735324 C59.9621898,30.4819273 58.2134433,30.355229 58.2134433,30.355229 C55.7294418,30.9153067 51.7784822,33.4161187 51.7784822,33.4161187 C50.1066947,34.1857815 48.534362,35.9737673 48.534362,35.9737673 L46.7358881,36.5906817 L44.9717497,38.5432569 C42.6996816,38.9020382 39.727878,40.2613811 39.727878,40.2613811 C38.2029048,40.9777596 35.2891165,43.1564973 35.2891165,43.1564973 L34.762243,45.9947768 L33.0312562,47.7152692 L30.1482516,52.4634965 C29.6403218,53.486556 30.600534,56.0371001 30.600534,56.0371001 C31.0575524,57.8771862 32.3765122,59.3608592 32.3765122,59.3608592 L33.8470222,60.3791823 L36.8354015,63.1854912 C38.1555453,64.6182481 37.7589102,64.4299768 37.7589102,64.4299768 L38.2692079,64.6324573 L43.1318363,64.8491469 C43.7380369,65.5146092 43.5343914,66.0178503 43.5343914,66.0178503 L46.9632133,67.4292934 L52.3361394,68.4997168 L54.3039232,69.9537874 C56.3368263,70.194159 59.378485,69.4185757 59.378485,69.4185757 L63.2299898,68.1906675 L66.064451,66.8147473 C68.4951732,66.2546696 70.7269858,65.2304261 70.7269858,65.2304261 C71.3343703,64.7745489 75.1835071,63.9516017 75.1835071,63.9516017 C75.1835071,63.9516017 75.9436258,63.7988533 77.1595789,63.4436243 C77.2424579,63.4199424 77.3241529,63.3903399 77.4070318,63.3619216 C78.4489391,62.9830107 78.9355571,62.3211007 78.9355571,62.3211007 L80.250965,59.6130718 L82.4271303,56.1401165 L82.7349665,55.8902721 L83.6833389,55.2863828 C83.834889,51.6618631 82.7835099,45.3624692 82.7835099,45.3624692 C82.5786804,44.5537313 81.716739,43.5259354 81.716739,43.5259354 L81.716739,43.5259354 Z" id="logo"></path>
                </g>
            </g>
        </g>
    </g>
</svg>