<svg width="20" height="20" viewBox="0 0 20 20" fill="none" xmlns="http://www.w3.org/2000/svg">
<path fill-rule="evenodd" clip-rule="evenodd" d="M5 0C2.23858 0 0 2.23858 0 5V15C0 17.7614 2.23858 20 5 20H10.3647H15C17.7614 20 20 17.7614 20 15V5C20 2.23858 17.7614 0 15 0H5ZM10.3647 20L13.1926 19.9999V12.7016H15.5513L15.9044 9.85726H13.1926V8.04126C13.1926 7.21779 13.4128 6.65655 14.5499 6.65655L16 6.65585V4.11195C15.7491 4.07742 14.8883 4 13.8869 4C11.7961 4 10.3647 5.32545 10.3647 7.75971V9.85733H8V12.7016H10.3647V20Z" fill="white"/>
</svg>
